<mxfile host="app.diagrams.net" agent="Mozilla/5.0 (Windows NT 10.0; Win64; x64) AppleWebKit/537.36 (KHTML, like Gecko) Chrome/134.0.0.0 Safari/537.36 Edg/134.0.0.0" version="26.0.16">
  <diagram name="Página-1" id="0Pqlmgjmrh0xwSGUFwKY">
    <mxGraphModel dx="6274" dy="3672" grid="1" gridSize="10" guides="1" tooltips="1" connect="1" arrows="1" fold="1" page="1" pageScale="1" pageWidth="827" pageHeight="1169" math="0" shadow="0">
      <root>
        <mxCell id="0" />
        <mxCell id="1" parent="0" />
        <mxCell id="Z66xN0s2nDXAdcldrbSK-58" style="edgeStyle=orthogonalEdgeStyle;rounded=0;orthogonalLoop=1;jettySize=auto;html=1;exitX=0.5;exitY=1;exitDx=0;exitDy=0;entryX=0.5;entryY=0;entryDx=0;entryDy=0;" parent="1" source="Z66xN0s2nDXAdcldrbSK-1" target="Z66xN0s2nDXAdcldrbSK-9" edge="1">
          <mxGeometry relative="1" as="geometry" />
        </mxCell>
        <mxCell id="Z66xN0s2nDXAdcldrbSK-60" style="edgeStyle=orthogonalEdgeStyle;rounded=0;orthogonalLoop=1;jettySize=auto;html=1;exitX=0.5;exitY=1;exitDx=0;exitDy=0;entryX=0.5;entryY=0;entryDx=0;entryDy=0;" parent="1" source="Z66xN0s2nDXAdcldrbSK-1" target="Z66xN0s2nDXAdcldrbSK-6" edge="1">
          <mxGeometry relative="1" as="geometry" />
        </mxCell>
        <object label="&lt;font style=&quot;font-size: 14px&quot;&gt;&lt;b&gt;%A_NAME%&lt;/b&gt;&lt;/font&gt;&lt;br&gt;&lt;div&gt;&lt;font style=&quot;font-size: 11px&quot;&gt;[Person]&lt;/font&gt;&lt;/div&gt;&lt;div style=&quot;font-size: 6px&quot;&gt;&lt;br&gt;&lt;/div&gt;&lt;div style=&quot;font-size: 11px&quot;&gt;&lt;font color=&quot;#CCCCCC&quot;&gt;%B_DESCRIPTION%&lt;/font&gt;&lt;/div&gt;" A_NAME="Usuário Final" B_DESCRIPTION="Acessa o marketplace para comprar produtos." placeholders="1" id="Z66xN0s2nDXAdcldrbSK-1">
          <mxCell style="shape=stencil(tZTdboMwDIWfJpdFIVnHbiu6vUca3GEVEpRk6s/TL+BULVpTTWorceNz4OM42DBZ+1YNwAQ3qgcm10yI9qhtv9BviwGctyYq0W7JK9851ftUf6Ra+QF0IHGLB2hI9sHZHeyxCQmApgWHYXTlJ+OreM94yVpbYyIBrfEz58qPMIUmPssPBOPFkl5zTDVVMTf2EMCljKQy8fV/8BxbVM8Cl68C80LMz6J8Hvll4OoBsqyjkhsaWW+U3n07+2Oam3kmx40Tm/nmuTk/7wE/z73THk9pcyS/fwpb7DraiFxDmdjxUevgTj/QdTh4uHSzvLkZqZtq3kz1cOw/6SaVfi2T8As=);whiteSpace=wrap;html=1;rounded=1;fontColor=#ffffff;strokeColor=#483F55;fillColor=#60596A;spacing=5;spacingTop=65;arcSize=30;allowArrows=0;recursiveResize=0;expand=0;metaEdit=1;resizable=0;rotatable=0;" parent="1" vertex="1">
            <mxGeometry x="453" y="-310" width="180" height="160" as="geometry" />
          </mxCell>
        </object>
        <mxCell id="Z66xN0s2nDXAdcldrbSK-36" style="edgeStyle=orthogonalEdgeStyle;rounded=0;orthogonalLoop=1;jettySize=auto;html=1;exitX=1;exitY=0.5;exitDx=0;exitDy=0;exitPerimeter=0;" parent="1" source="Z66xN0s2nDXAdcldrbSK-2" target="Z66xN0s2nDXAdcldrbSK-35" edge="1">
          <mxGeometry relative="1" as="geometry" />
        </mxCell>
        <object label="&lt;font style=&quot;font-size: 14px&quot;&gt;&lt;b&gt;%A_NAME%&lt;/b&gt;&lt;/font&gt;&lt;br&gt;&lt;div&gt;&lt;font style=&quot;font-size: 11px&quot;&gt;[Software System]&lt;/font&gt;&lt;/div&gt;&lt;div style=&quot;font-size: 6px&quot;&gt;&lt;br&gt;&lt;/div&gt;&lt;div style=&quot;font-size: 11px&quot;&gt;&lt;font color=&quot;#CCCCCC&quot;&gt;%B_DESCRIPTION%&lt;/font&gt;&lt;/div&gt;" placeholders="1" A_NAME="Api Gateway" B_DESCRIPTION=" Todas as requisições passam por ele antes de serem direcionadas para o Kafka." id="Z66xN0s2nDXAdcldrbSK-2">
          <mxCell style="rounded=1;whiteSpace=wrap;html=1;fontColor=#ffffff;arcSize=6;metaEdit=1;points=[[0.25,0,0],[0.5,0,0],[0.75,0,0],[1,0.25,0],[1,0.5,0],[1,0.75,0],[0.75,1,0],[0.5,1,0],[0.25,1,0],[0,0.75,0],[0,0.5,0],[0,0.25,0]];resizable=0;editable=1;fillColor=#48279E;strokeColor=#2C186C;movableLabel=0;allowArrows=0;rotatable=0;imageWidth=24;spacing=5;" parent="1" vertex="1">
            <mxGeometry x="234" y="270" width="220" height="100" as="geometry" />
          </mxCell>
        </object>
        <object label="&lt;font style=&quot;font-size: 14px&quot; color=&quot;#FFFFFF&quot;&gt;&lt;b&gt;&lt;font style=&quot;font-size: 14px&quot;&gt;&lt;span&gt;%A_NAME%&lt;/span&gt;&lt;/font&gt;&lt;/b&gt;&lt;/font&gt;&lt;font color=&quot;#FFFFFF&quot;&gt;&lt;br&gt;&lt;/font&gt;&lt;div&gt;&lt;font style=&quot;font-size: 11px&quot; color=&quot;#FFFFFF&quot;&gt;[Container: %B_TECHNOLOGY%]&lt;/font&gt;&lt;/div&gt;&lt;div style=&quot;font-size: 6px&quot;&gt;&lt;font color=&quot;#FFFFFF&quot;&gt;&lt;br&gt;&lt;/font&gt;&lt;/div&gt;&lt;div style=&quot;font-size: 11px&quot;&gt;&lt;font color=&quot;#E6E6E6&quot;&gt;%C_DESCRIPTION%&lt;/font&gt;&lt;/div&gt;" A_NAME="Aplicação Web" B_TECHNOLOGY="Angular, React, Vue.js" C_DESCRIPTION="Interface principal para usuários e vendedores." placeholders="1" id="Z66xN0s2nDXAdcldrbSK-6">
          <mxCell style="shape=stencil(3VbbcoMgEP0aHuPAYtQ+pib5D4OkMjHgoB2Tfn3R9aGkanpJptM8ObvLOew5sgyEp3WRVZIA1dlREr4mAMVZmONChItW7hY7a9paWpd2awpcwEKKcYsxwBBndSVFg8m9Oskc03VjzUG2Km8GAqULaVXTVfmG0BXpCCjhqTBaOwZldO1VPtQdWaa0w9ITktFgiduchxijyu1wlI1rHXvGLIHt14l92iC+FTG7FzENwPeC3Y75bsTxL5h56jJTh4anu0wcXqx51floP33Fdid26p+PH/PLMcisqNXbMD3RvAc4C8KUxs0UxW+PI8DDNWdPz/P4vSrLcfRyy7erzXU0djBl5oRlDmqs/J6Xkedl5HnJogsvx6zk9KdeRGm4TJPr6JnyiCAWw5yk/6goSR5MEdDwwRT5YwTg30k08RUxGJEU/oGi/jb5dGn0WXxy9Il3);whiteSpace=wrap;html=1;spacingTop=12;allowArrows=0;metaEdit=1;resizable=0;rotatable=0;strokeColor=#666666;fontFamily=Helvetica;fontSize=11;fontColor=#4D4D4D;spacing=5;spacingLeft=8;spacingRight=8;" parent="1" vertex="1">
            <mxGeometry x="50" y="10" width="220" height="140" as="geometry" />
          </mxCell>
        </object>
        <object label="&lt;font style=&quot;font-size: 14px&quot; color=&quot;#FFFFFF&quot;&gt;&lt;b&gt;&lt;font style=&quot;font-size: 14px&quot;&gt;&lt;span&gt;%A_NAME%&lt;/span&gt;&lt;/font&gt;&lt;/b&gt;&lt;/font&gt;&lt;font color=&quot;#FFFFFF&quot;&gt;&lt;br&gt;&lt;/font&gt;&lt;div&gt;&lt;font style=&quot;font-size: 11px&quot; color=&quot;#FFFFFF&quot;&gt;[Container: %B_TECHNOLOGY%]&lt;/font&gt;&lt;/div&gt;&lt;div style=&quot;font-size: 6px&quot;&gt;&lt;font color=&quot;#FFFFFF&quot;&gt;&lt;br&gt;&lt;/font&gt;&lt;/div&gt;&lt;div style=&quot;font-size: 11px&quot;&gt;&lt;font color=&quot;#E6E6E6&quot;&gt;%C_DESCRIPTION%&lt;/font&gt;&lt;/div&gt;" A_NAME="Aplicação Mobile" B_TECHNOLOGY="Android, iOS" C_DESCRIPTION="Aplicativo móvel para facilitar o acesso ao marketplace." placeholders="1" id="Z66xN0s2nDXAdcldrbSK-9">
          <mxCell style="shape=stencil(zVXLboMwEPwaH0HG5pEeUyf8h2OcYgVsZKiS9OtrWKTGKZCqTdSc0M4y491hLBBlbckbiQjWvJaIbhAh5VmYOhBxUJudqmTAm8ah7pUS+lGMoT5CTchY87aRogNwr06yALjtrDnIoyq6UUDpUlrV9V26RXiNegGMKBNGa6egjG69zkXfiXGlHRefQAyHCRxzHmuoGndCLTtpx5kBRST/ubAvG2b3Eo4eJYxD4nsR3U/5YcLZH5Qpc8hcaCjbcXF4s+ZdF5PzDB3bJ3bum0/H/PoacCta9TFennTZA7gLwlTGOgCeAw8RGm9o9PK6zN+rqppmJznN19vbbJhgzswZyxzVWLngpawq1bTyy8nUczJNPCujKyfxb5dOWZyw1W32QnsiBb3c5fD+7FnqD09WEzGIn2wjnHkrJX60Y2+jyVwn//GNhkh+S96Awm9rAD4B);whiteSpace=wrap;html=1;allowArrows=0;metaEdit=1;expand=0;recursiveResize=0;resizable=0;rotatable=0;strokeColor=#666666;fontFamily=Helvetica;fontSize=11;fontColor=#4D4D4D;spacingLeft=20;spacingRight=20;spacing=5;" parent="1" vertex="1">
            <mxGeometry x="390" y="10" width="220" height="140" as="geometry" />
          </mxCell>
        </object>
        <object label="&lt;div&gt;&lt;b&gt;%A_DESCRIPTION%&lt;/b&gt;&lt;br&gt;&lt;/div&gt;&lt;div&gt;[%B_TECHNOLOGY%]&lt;/div&gt;" placeholders="1" A_DESCRIPTION="Requisição feita através da API" B_TECHNOLOGY="REST/JSON/HTTP" id="Z66xN0s2nDXAdcldrbSK-11">
          <mxCell style="endArrow=block;html=1;fontSize=10;fontColor=#404040;strokeWidth=1;endFill=1;strokeColor=#828282;elbow=vertical;metaEdit=1;jumpStyle=arc;jumpSize=14;rounded=0;entryX=0.5;entryY=0;entryDx=0;entryDy=0;exitX=0.5;exitY=1;exitDx=0;exitDy=0;entryPerimeter=0;" parent="1" target="Z66xN0s2nDXAdcldrbSK-2" edge="1">
            <mxGeometry width="50" height="50" relative="1" as="geometry">
              <mxPoint x="160" y="149.99999999999977" as="sourcePoint" />
              <mxPoint y="240" as="targetPoint" />
            </mxGeometry>
          </mxCell>
        </object>
        <object label="&lt;div&gt;&lt;b&gt;%A_DESCRIPTION%&lt;/b&gt;&lt;br&gt;&lt;/div&gt;&lt;div&gt;[%B_TECHNOLOGY%]&lt;/div&gt;" placeholders="1" A_DESCRIPTION="Requisição feita através da API" B_TECHNOLOGY="REST/JSON/HTTP" id="Z66xN0s2nDXAdcldrbSK-12">
          <mxCell style="endArrow=block;html=1;fontSize=10;fontColor=#404040;strokeWidth=1;endFill=1;strokeColor=#828282;elbow=vertical;metaEdit=1;jumpStyle=arc;jumpSize=14;rounded=0;entryX=0.5;entryY=0;entryDx=0;entryDy=0;exitX=0.5;exitY=1;exitDx=0;exitDy=0;entryPerimeter=0;" parent="1" target="Z66xN0s2nDXAdcldrbSK-2" edge="1">
            <mxGeometry width="50" height="50" relative="1" as="geometry">
              <mxPoint x="500" y="149.99999999999977" as="sourcePoint" />
              <mxPoint x="684" y="260" as="targetPoint" />
            </mxGeometry>
          </mxCell>
        </object>
        <object label="&lt;font style=&quot;font-size: 14px&quot; color=&quot;#FFFFFF&quot;&gt;&lt;b&gt;&lt;font style=&quot;font-size: 14px&quot;&gt;&lt;span&gt;%A_NAME%&lt;/span&gt;&lt;/font&gt;&lt;/b&gt;&lt;/font&gt;&lt;font color=&quot;#FFFFFF&quot;&gt;&lt;br&gt;&lt;/font&gt;&lt;div&gt;&lt;font style=&quot;font-size: 11px&quot; color=&quot;#FFFFFF&quot;&gt;[Container: %B_TECHNOLOGY%]&lt;/font&gt;&lt;/div&gt;&lt;div style=&quot;font-size: 6px&quot;&gt;&lt;font color=&quot;#FFFFFF&quot;&gt;&lt;br&gt;&lt;/font&gt;&lt;/div&gt;&lt;div style=&quot;font-size: 11px&quot; align=&quot;center&quot;&gt;&lt;font color=&quot;#E6E6E6&quot;&gt;%C_DESCRIPTION%&lt;/font&gt;&lt;/div&gt;" A_NAME="Solução de Eventos" B_TECHNOLOGY="Kafka" C_DESCRIPTION="Serviço para registro e encaminhamento de eventos." placeholders="1" id="Z66xN0s2nDXAdcldrbSK-13">
          <mxCell style="shape=cylinder3;whiteSpace=wrap;html=1;boundedLbl=1;backgroundOutline=0;size=15;fontFamily=Helvetica;fontSize=11;fontColor=#ffffff;strokeColor=#4D319B;rounded=1;fillColor=#6c45c8;spacing=5;spacingTop=-5;arcSize=6;rotation=90;textDirection=ltr;verticalAlign=middle;horizontal=0;allowArrows=0;recursiveResize=0;expand=0;resizable=0;rotatable=0;metaEdit=1;" parent="1" vertex="1">
            <mxGeometry x="294" y="430" width="100" height="220" as="geometry" />
          </mxCell>
        </object>
        <object label="&lt;div&gt;&lt;b&gt;%A_DESCRIPTION%&lt;/b&gt;&lt;br&gt;&lt;/div&gt;&lt;div&gt;[%B_TECHNOLOGY%]&lt;/div&gt;" placeholders="1" A_DESCRIPTION="Requisição feita através da publicação de eventos" B_TECHNOLOGY="Kafka" id="Z66xN0s2nDXAdcldrbSK-14">
          <mxCell style="endArrow=block;html=1;fontSize=10;fontColor=#404040;strokeWidth=1;endFill=1;strokeColor=#828282;elbow=vertical;metaEdit=1;jumpStyle=arc;jumpSize=14;rounded=0;exitX=0.5;exitY=1;exitDx=0;exitDy=0;exitPerimeter=0;entryX=0;entryY=0.5;entryDx=0;entryDy=0;entryPerimeter=0;" parent="1" source="Z66xN0s2nDXAdcldrbSK-2" target="Z66xN0s2nDXAdcldrbSK-13" edge="1">
            <mxGeometry width="50" height="50" relative="1" as="geometry">
              <mxPoint x="300" y="429.9999999999998" as="sourcePoint" />
              <mxPoint x="344" y="470" as="targetPoint" />
            </mxGeometry>
          </mxCell>
        </object>
        <object label="&lt;font style=&quot;font-size: 14px&quot;&gt;&lt;b&gt;%A_NAME%&lt;/b&gt;&lt;/font&gt;&lt;br&gt;&lt;div&gt;&lt;font style=&quot;font-size: 11px&quot;&gt;[Software System]&lt;/font&gt;&lt;/div&gt;&lt;div style=&quot;font-size: 6px&quot;&gt;&lt;br&gt;&lt;/div&gt;&lt;div style=&quot;font-size: 11px&quot;&gt;&lt;font color=&quot;#CCCCCC&quot;&gt;%B_DESCRIPTION%&lt;/font&gt;&lt;/div&gt;" placeholders="1" A_NAME="Serviço de Carrinho de Compras" B_DESCRIPTION="Gerencia adição, remoção e atualização de itens no carrinho." id="Z66xN0s2nDXAdcldrbSK-16">
          <mxCell style="rounded=1;whiteSpace=wrap;html=1;fontColor=#ffffff;arcSize=6;metaEdit=1;points=[[0.25,0,0],[0.5,0,0],[0.75,0,0],[1,0.25,0],[1,0.5,0],[1,0.75,0],[0.75,1,0],[0.5,1,0],[0.25,1,0],[0,0.75,0],[0,0.5,0],[0,0.25,0]];resizable=0;editable=1;fillColor=#48279E;strokeColor=#2C186C;movableLabel=0;allowArrows=0;rotatable=0;imageWidth=24;spacing=5;" parent="1" vertex="1">
            <mxGeometry x="507.5" y="740" width="220" height="100" as="geometry" />
          </mxCell>
        </object>
        <object label="&lt;font style=&quot;font-size: 14px&quot;&gt;&lt;b&gt;%A_NAME%&lt;/b&gt;&lt;/font&gt;&lt;br&gt;&lt;div&gt;&lt;font style=&quot;font-size: 11px&quot;&gt;[Software System]&lt;/font&gt;&lt;/div&gt;&lt;div style=&quot;font-size: 6px&quot;&gt;&lt;br&gt;&lt;/div&gt;&lt;div style=&quot;font-size: 11px&quot;&gt;&lt;font color=&quot;#CCCCCC&quot;&gt;%B_DESCRIPTION%&lt;/font&gt;&lt;/div&gt;" placeholders="1" A_NAME="Serviço de Pagamento" B_DESCRIPTION="Processa transações e se comunica com o provedor de pagamento." id="Z66xN0s2nDXAdcldrbSK-17">
          <mxCell style="rounded=1;whiteSpace=wrap;html=1;fontColor=#ffffff;arcSize=6;metaEdit=1;points=[[0.25,0,0],[0.5,0,0],[0.75,0,0],[1,0.25,0],[1,0.5,0],[1,0.75,0],[0.75,1,0],[0.5,1,0],[0.25,1,0],[0,0.75,0],[0,0.5,0],[0,0.25,0]];resizable=0;editable=1;fillColor=#48279E;strokeColor=#2C186C;movableLabel=0;allowArrows=0;rotatable=0;imageWidth=24;spacing=5;" parent="1" vertex="1">
            <mxGeometry x="-62.5" y="740" width="220" height="100" as="geometry" />
          </mxCell>
        </object>
        <mxCell id="Z66xN0s2nDXAdcldrbSK-41" style="edgeStyle=orthogonalEdgeStyle;rounded=0;orthogonalLoop=1;jettySize=auto;html=1;exitX=0.5;exitY=1;exitDx=0;exitDy=0;exitPerimeter=0;" parent="1" source="Z66xN0s2nDXAdcldrbSK-18" target="Z66xN0s2nDXAdcldrbSK-40" edge="1">
          <mxGeometry relative="1" as="geometry" />
        </mxCell>
        <object label="&lt;font style=&quot;font-size: 14px&quot;&gt;&lt;b&gt;%A_NAME%&lt;/b&gt;&lt;/font&gt;&lt;br&gt;&lt;div&gt;&lt;font style=&quot;font-size: 11px&quot;&gt;[Software System]&lt;/font&gt;&lt;/div&gt;&lt;div style=&quot;font-size: 6px&quot;&gt;&lt;br&gt;&lt;/div&gt;&lt;div style=&quot;font-size: 11px&quot;&gt;&lt;font color=&quot;#CCCCCC&quot;&gt;%B_DESCRIPTION%&lt;/font&gt;&lt;/div&gt;" placeholders="1" A_NAME="Serviço de Notificações" B_DESCRIPTION="Envia e gerencia notificações para os usuários." id="Z66xN0s2nDXAdcldrbSK-18">
          <mxCell style="rounded=1;whiteSpace=wrap;html=1;fontColor=#ffffff;arcSize=6;metaEdit=1;points=[[0.25,0,0],[0.5,0,0],[0.75,0,0],[1,0.25,0],[1,0.5,0],[1,0.75,0],[0.75,1,0],[0.5,1,0],[0.25,1,0],[0,0.75,0],[0,0.5,0],[0,0.25,0]];resizable=0;editable=1;fillColor=#48279E;strokeColor=#2C186C;movableLabel=0;allowArrows=0;rotatable=0;imageWidth=24;spacing=5;" parent="1" vertex="1">
            <mxGeometry x="804.5" y="740" width="220" height="100" as="geometry" />
          </mxCell>
        </object>
        <object label="&lt;font style=&quot;font-size: 14px&quot;&gt;&lt;b&gt;%A_NAME%&lt;/b&gt;&lt;/font&gt;&lt;br&gt;&lt;div&gt;&lt;font style=&quot;font-size: 11px&quot;&gt;[Software System]&lt;/font&gt;&lt;/div&gt;&lt;div style=&quot;font-size: 6px&quot;&gt;&lt;br&gt;&lt;/div&gt;&lt;div style=&quot;font-size: 11px&quot;&gt;&lt;font color=&quot;#CCCCCC&quot;&gt;%B_DESCRIPTION%&lt;/font&gt;&lt;/div&gt;" placeholders="1" A_NAME="Serviço de Pedidos" B_DESCRIPTION="Processa compras e acompanha status dos pedidos." id="Z66xN0s2nDXAdcldrbSK-19">
          <mxCell style="rounded=1;whiteSpace=wrap;html=1;fontColor=#ffffff;arcSize=6;metaEdit=1;points=[[0.25,0,0],[0.5,0,0],[0.75,0,0],[1,0.25,0],[1,0.5,0],[1,0.75,0],[0.75,1,0],[0.5,1,0],[0.25,1,0],[0,0.75,0],[0,0.5,0],[0,0.25,0]];resizable=0;editable=1;fillColor=#48279E;strokeColor=#2C186C;movableLabel=0;allowArrows=0;rotatable=0;imageWidth=24;spacing=5;" parent="1" vertex="1">
            <mxGeometry x="1077.5" y="740" width="220" height="100" as="geometry" />
          </mxCell>
        </object>
        <object label="&lt;font style=&quot;font-size: 14px&quot;&gt;&lt;b&gt;%A_NAME%&lt;/b&gt;&lt;/font&gt;&lt;br&gt;&lt;div&gt;&lt;font style=&quot;font-size: 11px&quot;&gt;[Software System]&lt;/font&gt;&lt;/div&gt;&lt;div style=&quot;font-size: 6px&quot;&gt;&lt;br&gt;&lt;/div&gt;&lt;div style=&quot;font-size: 11px&quot;&gt;&lt;font color=&quot;#CCCCCC&quot;&gt;%B_DESCRIPTION%&lt;/font&gt;&lt;/div&gt;" placeholders="1" A_NAME="Serviço de Produtos" B_DESCRIPTION="Sistema voltado para cadastro, atualização e busca de produtos." id="Z66xN0s2nDXAdcldrbSK-20">
          <mxCell style="rounded=1;whiteSpace=wrap;html=1;fontColor=#ffffff;arcSize=6;metaEdit=1;points=[[0.25,0,0],[0.5,0,0],[0.75,0,0],[1,0.25,0],[1,0.5,0],[1,0.75,0],[0.75,1,0],[0.5,1,0],[0.25,1,0],[0,0.75,0],[0,0.5,0],[0,0.25,0]];resizable=0;editable=1;fillColor=#48279E;strokeColor=#2C186C;movableLabel=0;allowArrows=0;rotatable=0;imageWidth=24;spacing=5;" parent="1" vertex="1">
            <mxGeometry x="-670" y="740" width="220" height="100" as="geometry" />
          </mxCell>
        </object>
        <object label="&lt;font style=&quot;font-size: 14px&quot;&gt;&lt;b&gt;%A_NAME%&lt;/b&gt;&lt;/font&gt;&lt;br&gt;&lt;div&gt;&lt;font style=&quot;font-size: 11px&quot;&gt;[Software System]&lt;/font&gt;&lt;/div&gt;&lt;div style=&quot;font-size: 6px&quot;&gt;&lt;br&gt;&lt;/div&gt;&lt;div style=&quot;font-size: 11px&quot;&gt;&lt;font color=&quot;#CCCCCC&quot;&gt;%B_DESCRIPTION%&lt;/font&gt;&lt;/div&gt;" placeholders="1" A_NAME="Serviço de Relatórios e Analytics" B_DESCRIPTION="Gera insights sobre vendas, tráfego e comportamento do usuário." id="Z66xN0s2nDXAdcldrbSK-21">
          <mxCell style="rounded=1;whiteSpace=wrap;html=1;fontColor=#ffffff;arcSize=6;metaEdit=1;points=[[0.25,0,0],[0.5,0,0],[0.75,0,0],[1,0.25,0],[1,0.5,0],[1,0.75,0],[0.75,1,0],[0.5,1,0],[0.25,1,0],[0,0.75,0],[0,0.5,0],[0,0.25,0]];resizable=0;editable=1;fillColor=#48279E;strokeColor=#2C186C;movableLabel=0;allowArrows=0;rotatable=0;imageWidth=24;spacing=5;" parent="1" vertex="1">
            <mxGeometry x="-940" y="740" width="220" height="100" as="geometry" />
          </mxCell>
        </object>
        <mxCell id="Z66xN0s2nDXAdcldrbSK-24" value="Publicação e leitura de eventos" style="text;html=1;align=center;verticalAlign=middle;whiteSpace=wrap;rounded=0;fontSize=10;" parent="1" vertex="1">
          <mxGeometry x="380" y="610" width="190" height="30" as="geometry" />
        </mxCell>
        <object label="&lt;font style=&quot;font-size: 14px&quot;&gt;&lt;b&gt;%A_NAME%&lt;/b&gt;&lt;/font&gt;&lt;br&gt;&lt;div&gt;&lt;font style=&quot;font-size: 11px&quot;&gt;[Software System]&lt;/font&gt;&lt;/div&gt;&lt;div style=&quot;font-size: 6px&quot;&gt;&lt;br&gt;&lt;/div&gt;&lt;div style=&quot;font-size: 11px&quot;&gt;&lt;font color=&quot;#CCCCCC&quot;&gt;%B_DESCRIPTION%&lt;/font&gt;&lt;/div&gt;" placeholders="1" A_NAME="Serviço de Usuários" B_DESCRIPTION="Sistema voltado para registro de usuários e controles de acesso." id="Z66xN0s2nDXAdcldrbSK-15">
          <mxCell style="rounded=1;whiteSpace=wrap;html=1;fontColor=#ffffff;arcSize=6;metaEdit=1;points=[[0.25,0,0],[0.5,0,0],[0.75,0,0],[1,0.25,0],[1,0.5,0],[1,0.75,0],[0.75,1,0],[0.5,1,0],[0.25,1,0],[0,0.75,0],[0,0.5,0],[0,0.25,0]];resizable=0;editable=1;fillColor=#48279E;strokeColor=#2C186C;movableLabel=0;allowArrows=0;rotatable=0;imageWidth=24;spacing=5;" parent="1" vertex="1">
            <mxGeometry x="234" y="740" width="220" height="100" as="geometry" />
          </mxCell>
        </object>
        <mxCell id="Z66xN0s2nDXAdcldrbSK-30" value="" style="endArrow=classic;startArrow=classic;html=1;rounded=0;entryX=1;entryY=0.5;entryDx=0;entryDy=0;entryPerimeter=0;exitX=0.5;exitY=0;exitDx=0;exitDy=0;exitPerimeter=0;" parent="1" source="Z66xN0s2nDXAdcldrbSK-15" target="Z66xN0s2nDXAdcldrbSK-13" edge="1">
          <mxGeometry width="50" height="50" relative="1" as="geometry">
            <mxPoint x="290" y="710" as="sourcePoint" />
            <mxPoint x="340" y="660" as="targetPoint" />
          </mxGeometry>
        </mxCell>
        <mxCell id="Z66xN0s2nDXAdcldrbSK-31" value="" style="endArrow=classic;startArrow=classic;html=1;rounded=0;entryX=1;entryY=0.5;entryDx=0;entryDy=0;entryPerimeter=0;exitX=0.5;exitY=0;exitDx=0;exitDy=0;exitPerimeter=0;" parent="1" source="Z66xN0s2nDXAdcldrbSK-17" target="Z66xN0s2nDXAdcldrbSK-13" edge="1">
          <mxGeometry width="50" height="50" relative="1" as="geometry">
            <mxPoint x="260" y="680" as="sourcePoint" />
            <mxPoint x="310" y="630" as="targetPoint" />
            <Array as="points">
              <mxPoint x="48" y="660" />
              <mxPoint x="344" y="660" />
            </Array>
          </mxGeometry>
        </mxCell>
        <mxCell id="Z66xN0s2nDXAdcldrbSK-32" value="" style="endArrow=classic;startArrow=classic;html=1;rounded=0;entryX=1;entryY=0.5;entryDx=0;entryDy=0;entryPerimeter=0;exitX=0.5;exitY=0;exitDx=0;exitDy=0;exitPerimeter=0;" parent="1" source="Z66xN0s2nDXAdcldrbSK-16" target="Z66xN0s2nDXAdcldrbSK-13" edge="1">
          <mxGeometry width="50" height="50" relative="1" as="geometry">
            <mxPoint x="490" y="780" as="sourcePoint" />
            <mxPoint x="540" y="730" as="targetPoint" />
            <Array as="points">
              <mxPoint x="618" y="660" />
              <mxPoint x="344" y="660" />
            </Array>
          </mxGeometry>
        </mxCell>
        <mxCell id="Z66xN0s2nDXAdcldrbSK-33" value="" style="endArrow=classic;startArrow=classic;html=1;rounded=0;entryX=1;entryY=0.5;entryDx=0;entryDy=0;entryPerimeter=0;exitX=0.5;exitY=0;exitDx=0;exitDy=0;exitPerimeter=0;" parent="1" source="Z66xN0s2nDXAdcldrbSK-20" target="Z66xN0s2nDXAdcldrbSK-13" edge="1">
          <mxGeometry width="50" height="50" relative="1" as="geometry">
            <mxPoint x="-240" y="660" as="sourcePoint" />
            <mxPoint x="300" y="620" as="targetPoint" />
            <Array as="points">
              <mxPoint x="-560" y="660" />
              <mxPoint x="344" y="660" />
            </Array>
          </mxGeometry>
        </mxCell>
        <mxCell id="Z66xN0s2nDXAdcldrbSK-34" value="" style="endArrow=classic;startArrow=classic;html=1;rounded=0;entryX=1;entryY=0.5;entryDx=0;entryDy=0;entryPerimeter=0;exitX=0.5;exitY=0;exitDx=0;exitDy=0;exitPerimeter=0;" parent="1" source="Z66xN0s2nDXAdcldrbSK-18" target="Z66xN0s2nDXAdcldrbSK-13" edge="1">
          <mxGeometry width="50" height="50" relative="1" as="geometry">
            <mxPoint x="650" y="700" as="sourcePoint" />
            <mxPoint x="700" y="650" as="targetPoint" />
            <Array as="points">
              <mxPoint x="915" y="660" />
              <mxPoint x="344" y="660" />
            </Array>
          </mxGeometry>
        </mxCell>
        <object label="&lt;font style=&quot;font-size: 14px&quot; color=&quot;#FFFFFF&quot;&gt;&lt;b&gt;&lt;font style=&quot;font-size: 14px&quot;&gt;&lt;span&gt;%A_NAME%&lt;/span&gt;&lt;/font&gt;&lt;/b&gt;&lt;/font&gt;&lt;font color=&quot;#FFFFFF&quot;&gt;&lt;br&gt;&lt;/font&gt;&lt;div&gt;&lt;font style=&quot;font-size: 11px&quot; color=&quot;#FFFFFF&quot;&gt;[Container: %B_TECHNOLOGY%]&lt;/font&gt;&lt;/div&gt;&lt;div style=&quot;font-size: 6px&quot;&gt;&lt;font color=&quot;#FFFFFF&quot;&gt;&lt;br&gt;&lt;/font&gt;&lt;/div&gt;&lt;div style=&quot;font-size: 11px&quot; align=&quot;center&quot;&gt;&lt;font color=&quot;#E6E6E6&quot;&gt;%C_DESCRIPTION%&lt;/font&gt;&lt;/div&gt;" A_NAME="Solução de Cache" B_TECHNOLOGY="Redis" C_DESCRIPTION="Serviço de cache disponível para os demais serviços" placeholders="1" id="Z66xN0s2nDXAdcldrbSK-35">
          <mxCell style="shape=cylinder3;whiteSpace=wrap;html=1;boundedLbl=1;backgroundOutline=0;size=15;fontFamily=Helvetica;fontSize=11;fontColor=#ffffff;strokeColor=#4D319B;rounded=1;fillColor=#6c45c8;spacing=5;spacingTop=-5;arcSize=6;rotation=90;textDirection=ltr;verticalAlign=middle;horizontal=0;allowArrows=0;recursiveResize=0;expand=0;resizable=0;rotatable=0;metaEdit=1;" parent="1" vertex="1">
            <mxGeometry x="670" y="210" width="100" height="220" as="geometry" />
          </mxCell>
        </object>
        <mxCell id="Z66xN0s2nDXAdcldrbSK-37" value="" style="endArrow=classic;startArrow=classic;html=1;rounded=0;entryX=1;entryY=0.5;entryDx=0;entryDy=0;entryPerimeter=0;exitX=0.5;exitY=0;exitDx=0;exitDy=0;exitPerimeter=0;" parent="1" source="Z66xN0s2nDXAdcldrbSK-19" target="Z66xN0s2nDXAdcldrbSK-13" edge="1">
          <mxGeometry width="50" height="50" relative="1" as="geometry">
            <mxPoint x="760" y="710" as="sourcePoint" />
            <mxPoint x="810" y="660" as="targetPoint" />
            <Array as="points">
              <mxPoint x="1188" y="660" />
              <mxPoint x="344" y="660" />
            </Array>
          </mxGeometry>
        </mxCell>
        <mxCell id="Z66xN0s2nDXAdcldrbSK-38" value="" style="endArrow=classic;startArrow=classic;html=1;rounded=0;entryX=1;entryY=0.5;entryDx=0;entryDy=0;entryPerimeter=0;exitX=0.5;exitY=0;exitDx=0;exitDy=0;exitPerimeter=0;" parent="1" source="Z66xN0s2nDXAdcldrbSK-21" target="Z66xN0s2nDXAdcldrbSK-13" edge="1">
          <mxGeometry width="50" height="50" relative="1" as="geometry">
            <mxPoint x="-40" y="710" as="sourcePoint" />
            <mxPoint x="10" y="660" as="targetPoint" />
            <Array as="points">
              <mxPoint x="-830" y="660" />
              <mxPoint x="344" y="660" />
            </Array>
          </mxGeometry>
        </mxCell>
        <object label="&lt;font style=&quot;font-size: 14px&quot;&gt;&lt;b&gt;&lt;font style=&quot;font-size: 14px&quot;&gt;&lt;span&gt;%A_NAME%&lt;/span&gt;&lt;/font&gt;&lt;/b&gt;&lt;/font&gt;&lt;br&gt;&lt;div&gt;&lt;font style=&quot;font-size: 11px&quot;&gt;[Container: %B_TECHNOLOGY%]&lt;/font&gt;&lt;/div&gt;&lt;div style=&quot;font-size: 6px&quot;&gt;&lt;br&gt;&lt;/div&gt;&lt;div style=&quot;font-size: 11px&quot;&gt;&lt;font color=&quot;#E6E6E6&quot;&gt;%C_DESCRIPTION%&lt;/font&gt;&lt;/div&gt;" A_NAME="Banco de dados" B_TECHNOLOGY="PostgresSQL, MongoDB" C_DESCRIPTION="Cada serviço tem seu próprio banco de dados." placeholders="1" id="Z66xN0s2nDXAdcldrbSK-39">
          <mxCell style="shape=cylinder3;whiteSpace=wrap;html=1;boundedLbl=1;backgroundOutline=1;size=15;rounded=1;fontColor=#ffffff;strokeColor=#4D319B;fillColor=#6c45c8;arcSize=6;autosize=0;metaEdit=1;resizable=0;rotatable=0;allowArrows=0;align=center;spacing=5;spacingTop=-5;verticalAlign=middle;" parent="1" vertex="1">
            <mxGeometry x="1077.5" y="950" width="220" height="110" as="geometry" />
          </mxCell>
        </object>
        <object label="&lt;font style=&quot;font-size: 14px&quot;&gt;&lt;b&gt;&lt;font style=&quot;font-size: 14px&quot;&gt;&lt;span&gt;%A_NAME%&lt;/span&gt;&lt;/font&gt;&lt;/b&gt;&lt;/font&gt;&lt;br&gt;&lt;div&gt;&lt;font style=&quot;font-size: 11px&quot;&gt;[Container: %B_TECHNOLOGY%]&lt;/font&gt;&lt;/div&gt;&lt;div style=&quot;font-size: 6px&quot;&gt;&lt;br&gt;&lt;/div&gt;&lt;div style=&quot;font-size: 11px&quot;&gt;&lt;font color=&quot;#E6E6E6&quot;&gt;%C_DESCRIPTION%&lt;/font&gt;&lt;/div&gt;" A_NAME="Banco de dados" B_TECHNOLOGY="PostgresSQL, MongoDB" C_DESCRIPTION="Cada serviço tem seu próprio banco de dados." placeholders="1" id="Z66xN0s2nDXAdcldrbSK-40">
          <mxCell style="shape=cylinder3;whiteSpace=wrap;html=1;boundedLbl=1;backgroundOutline=1;size=15;rounded=1;fontColor=#ffffff;strokeColor=#4D319B;fillColor=#6c45c8;arcSize=6;autosize=0;metaEdit=1;resizable=0;rotatable=0;allowArrows=0;align=center;spacing=5;spacingTop=-5;verticalAlign=middle;" parent="1" vertex="1">
            <mxGeometry x="804.5" y="950" width="220" height="110" as="geometry" />
          </mxCell>
        </object>
        <mxCell id="Z66xN0s2nDXAdcldrbSK-42" style="edgeStyle=orthogonalEdgeStyle;rounded=0;orthogonalLoop=1;jettySize=auto;html=1;exitX=0.5;exitY=1;exitDx=0;exitDy=0;exitPerimeter=0;entryX=0.5;entryY=0;entryDx=0;entryDy=0;entryPerimeter=0;" parent="1" source="Z66xN0s2nDXAdcldrbSK-19" target="Z66xN0s2nDXAdcldrbSK-39" edge="1">
          <mxGeometry relative="1" as="geometry" />
        </mxCell>
        <object label="&lt;font style=&quot;font-size: 14px&quot;&gt;&lt;b&gt;&lt;font style=&quot;font-size: 14px&quot;&gt;&lt;span&gt;%A_NAME%&lt;/span&gt;&lt;/font&gt;&lt;/b&gt;&lt;/font&gt;&lt;br&gt;&lt;div&gt;&lt;font style=&quot;font-size: 11px&quot;&gt;[Container: %B_TECHNOLOGY%]&lt;/font&gt;&lt;/div&gt;&lt;div style=&quot;font-size: 6px&quot;&gt;&lt;br&gt;&lt;/div&gt;&lt;div style=&quot;font-size: 11px&quot;&gt;&lt;font color=&quot;#E6E6E6&quot;&gt;%C_DESCRIPTION%&lt;/font&gt;&lt;/div&gt;" A_NAME="Banco de dados" B_TECHNOLOGY="PostgresSQL, MongoDB" C_DESCRIPTION="Cada serviço tem seu próprio banco de dados." placeholders="1" id="Z66xN0s2nDXAdcldrbSK-43">
          <mxCell style="shape=cylinder3;whiteSpace=wrap;html=1;boundedLbl=1;backgroundOutline=1;size=15;rounded=1;fontColor=#ffffff;strokeColor=#4D319B;fillColor=#6c45c8;arcSize=6;autosize=0;metaEdit=1;resizable=0;rotatable=0;allowArrows=0;align=center;spacing=5;spacingTop=-5;verticalAlign=middle;" parent="1" vertex="1">
            <mxGeometry x="507.5" y="950" width="220" height="110" as="geometry" />
          </mxCell>
        </object>
        <object label="&lt;font style=&quot;font-size: 14px&quot;&gt;&lt;b&gt;&lt;font style=&quot;font-size: 14px&quot;&gt;&lt;span&gt;%A_NAME%&lt;/span&gt;&lt;/font&gt;&lt;/b&gt;&lt;/font&gt;&lt;br&gt;&lt;div&gt;&lt;font style=&quot;font-size: 11px&quot;&gt;[Container: %B_TECHNOLOGY%]&lt;/font&gt;&lt;/div&gt;&lt;div style=&quot;font-size: 6px&quot;&gt;&lt;br&gt;&lt;/div&gt;&lt;div style=&quot;font-size: 11px&quot;&gt;&lt;font color=&quot;#E6E6E6&quot;&gt;%C_DESCRIPTION%&lt;/font&gt;&lt;/div&gt;" A_NAME="Banco de dados" B_TECHNOLOGY="PostgresSQL, MongoDB" C_DESCRIPTION="Cada serviço tem seu próprio banco de dados." placeholders="1" id="Z66xN0s2nDXAdcldrbSK-44">
          <mxCell style="shape=cylinder3;whiteSpace=wrap;html=1;boundedLbl=1;backgroundOutline=1;size=15;rounded=1;fontColor=#ffffff;strokeColor=#4D319B;fillColor=#6c45c8;arcSize=6;autosize=0;metaEdit=1;resizable=0;rotatable=0;allowArrows=0;align=center;spacing=5;spacingTop=-5;verticalAlign=middle;" parent="1" vertex="1">
            <mxGeometry x="234" y="950" width="220" height="110" as="geometry" />
          </mxCell>
        </object>
        <mxCell id="Z66xN0s2nDXAdcldrbSK-45" style="edgeStyle=orthogonalEdgeStyle;rounded=0;orthogonalLoop=1;jettySize=auto;html=1;exitX=0.5;exitY=1;exitDx=0;exitDy=0;exitPerimeter=0;entryX=0.5;entryY=0;entryDx=0;entryDy=0;entryPerimeter=0;" parent="1" source="Z66xN0s2nDXAdcldrbSK-16" target="Z66xN0s2nDXAdcldrbSK-43" edge="1">
          <mxGeometry relative="1" as="geometry" />
        </mxCell>
        <mxCell id="Z66xN0s2nDXAdcldrbSK-46" style="edgeStyle=orthogonalEdgeStyle;rounded=0;orthogonalLoop=1;jettySize=auto;html=1;exitX=0.5;exitY=1;exitDx=0;exitDy=0;exitPerimeter=0;entryX=0.5;entryY=0;entryDx=0;entryDy=0;entryPerimeter=0;" parent="1" source="Z66xN0s2nDXAdcldrbSK-15" target="Z66xN0s2nDXAdcldrbSK-44" edge="1">
          <mxGeometry relative="1" as="geometry" />
        </mxCell>
        <object label="&lt;font style=&quot;font-size: 14px&quot;&gt;&lt;b&gt;&lt;font style=&quot;font-size: 14px&quot;&gt;&lt;span&gt;%A_NAME%&lt;/span&gt;&lt;/font&gt;&lt;/b&gt;&lt;/font&gt;&lt;br&gt;&lt;div&gt;&lt;font style=&quot;font-size: 11px&quot;&gt;[Container: %B_TECHNOLOGY%]&lt;/font&gt;&lt;/div&gt;&lt;div style=&quot;font-size: 6px&quot;&gt;&lt;br&gt;&lt;/div&gt;&lt;div style=&quot;font-size: 11px&quot;&gt;&lt;font color=&quot;#E6E6E6&quot;&gt;%C_DESCRIPTION%&lt;/font&gt;&lt;/div&gt;" A_NAME="Banco de dados" B_TECHNOLOGY="PostgresSQL, MongoDB" C_DESCRIPTION="Cada serviço tem seu próprio banco de dados." placeholders="1" id="Z66xN0s2nDXAdcldrbSK-47">
          <mxCell style="shape=cylinder3;whiteSpace=wrap;html=1;boundedLbl=1;backgroundOutline=1;size=15;rounded=1;fontColor=#ffffff;strokeColor=#4D319B;fillColor=#6c45c8;arcSize=6;autosize=0;metaEdit=1;resizable=0;rotatable=0;allowArrows=0;align=center;spacing=5;spacingTop=-5;verticalAlign=middle;" parent="1" vertex="1">
            <mxGeometry x="-62.5" y="950" width="220" height="110" as="geometry" />
          </mxCell>
        </object>
        <mxCell id="Z66xN0s2nDXAdcldrbSK-48" style="edgeStyle=orthogonalEdgeStyle;rounded=0;orthogonalLoop=1;jettySize=auto;html=1;exitX=0.5;exitY=1;exitDx=0;exitDy=0;exitPerimeter=0;entryX=0.5;entryY=0;entryDx=0;entryDy=0;entryPerimeter=0;" parent="1" source="Z66xN0s2nDXAdcldrbSK-17" target="Z66xN0s2nDXAdcldrbSK-47" edge="1">
          <mxGeometry relative="1" as="geometry" />
        </mxCell>
        <object label="&lt;font style=&quot;font-size: 14px&quot;&gt;&lt;b&gt;&lt;font style=&quot;font-size: 14px&quot;&gt;&lt;span&gt;%A_NAME%&lt;/span&gt;&lt;/font&gt;&lt;/b&gt;&lt;/font&gt;&lt;br&gt;&lt;div&gt;&lt;font style=&quot;font-size: 11px&quot;&gt;[Container: %B_TECHNOLOGY%]&lt;/font&gt;&lt;/div&gt;&lt;div style=&quot;font-size: 6px&quot;&gt;&lt;br&gt;&lt;/div&gt;&lt;div style=&quot;font-size: 11px&quot;&gt;&lt;font color=&quot;#E6E6E6&quot;&gt;%C_DESCRIPTION%&lt;/font&gt;&lt;/div&gt;" A_NAME="Banco de dados" B_TECHNOLOGY="PostgresSQL, MongoDB" C_DESCRIPTION="Cada serviço tem seu próprio banco de dados." placeholders="1" id="Z66xN0s2nDXAdcldrbSK-49">
          <mxCell style="shape=cylinder3;whiteSpace=wrap;html=1;boundedLbl=1;backgroundOutline=1;size=15;rounded=1;fontColor=#ffffff;strokeColor=#4D319B;fillColor=#6c45c8;arcSize=6;autosize=0;metaEdit=1;resizable=0;rotatable=0;allowArrows=0;align=center;spacing=5;spacingTop=-5;verticalAlign=middle;" parent="1" vertex="1">
            <mxGeometry x="-670" y="950" width="220" height="110" as="geometry" />
          </mxCell>
        </object>
        <mxCell id="Z66xN0s2nDXAdcldrbSK-50" style="edgeStyle=orthogonalEdgeStyle;rounded=0;orthogonalLoop=1;jettySize=auto;html=1;exitX=0.5;exitY=1;exitDx=0;exitDy=0;exitPerimeter=0;entryX=0.5;entryY=0;entryDx=0;entryDy=0;entryPerimeter=0;" parent="1" source="Z66xN0s2nDXAdcldrbSK-20" target="Z66xN0s2nDXAdcldrbSK-49" edge="1">
          <mxGeometry relative="1" as="geometry" />
        </mxCell>
        <object label="&lt;font style=&quot;font-size: 14px&quot;&gt;&lt;b&gt;%A_NAME%&lt;/b&gt;&lt;/font&gt;&lt;br&gt;&lt;div&gt;&lt;font style=&quot;font-size: 11px&quot;&gt;[Software System]&lt;/font&gt;&lt;/div&gt;&lt;div style=&quot;font-size: 6px&quot;&gt;&lt;br&gt;&lt;/div&gt;&lt;div style=&quot;font-size: 11px&quot;&gt;&lt;font color=&quot;#CCCCCC&quot;&gt;%B_DESCRIPTION%&lt;/font&gt;&lt;/div&gt;" placeholders="1" A_NAME="Provedor de Pagamento" B_DESCRIPTION="Fornece integração de pagamentos locais e microempreendedores." id="Z66xN0s2nDXAdcldrbSK-52">
          <mxCell style="rounded=1;whiteSpace=wrap;html=1;fontColor=#ffffff;arcSize=6;metaEdit=1;points=[[0.25,0,0],[0.5,0,0],[0.75,0,0],[1,0.25,0],[1,0.5,0],[1,0.75,0],[0.75,1,0],[0.5,1,0],[0.25,1,0],[0,0.75,0],[0,0.5,0],[0,0.25,0]];resizable=0;editable=1;fillColor=#7b7484;strokeColor=#635970;movableLabel=0;allowArrows=0;rotatable=0;imageWidth=24;spacing=5;" parent="1" vertex="1">
            <mxGeometry x="-413" y="740" width="220" height="100" as="geometry" />
          </mxCell>
        </object>
        <mxCell id="Z66xN0s2nDXAdcldrbSK-53" value="" style="endArrow=classic;startArrow=classic;html=1;rounded=0;entryX=0;entryY=0.5;entryDx=0;entryDy=0;entryPerimeter=0;exitX=1;exitY=0.5;exitDx=0;exitDy=0;exitPerimeter=0;" parent="1" source="Z66xN0s2nDXAdcldrbSK-52" target="Z66xN0s2nDXAdcldrbSK-17" edge="1">
          <mxGeometry width="50" height="50" relative="1" as="geometry">
            <mxPoint x="-310" y="830" as="sourcePoint" />
            <mxPoint x="-260" y="780" as="targetPoint" />
          </mxGeometry>
        </mxCell>
        <mxCell id="Z66xN0s2nDXAdcldrbSK-55" value="Requisições HTTP" style="text;html=1;align=center;verticalAlign=middle;whiteSpace=wrap;rounded=0;fontSize=10;" parent="1" vertex="1">
          <mxGeometry x="-193" y="760" width="133" height="30" as="geometry" />
        </mxCell>
        <mxCell id="Z66xN0s2nDXAdcldrbSK-59" style="edgeStyle=orthogonalEdgeStyle;rounded=0;orthogonalLoop=1;jettySize=auto;html=1;exitX=0.5;exitY=1;exitDx=0;exitDy=0;entryX=0.5;entryY=0;entryDx=0;entryDy=0;" parent="1" source="Z66xN0s2nDXAdcldrbSK-56" target="Z66xN0s2nDXAdcldrbSK-6" edge="1">
          <mxGeometry relative="1" as="geometry" />
        </mxCell>
        <mxCell id="Z66xN0s2nDXAdcldrbSK-63" style="edgeStyle=orthogonalEdgeStyle;rounded=0;orthogonalLoop=1;jettySize=auto;html=1;exitX=0.5;exitY=1;exitDx=0;exitDy=0;entryX=0.5;entryY=0;entryDx=0;entryDy=0;" parent="1" source="Z66xN0s2nDXAdcldrbSK-56" target="Z66xN0s2nDXAdcldrbSK-9" edge="1">
          <mxGeometry relative="1" as="geometry" />
        </mxCell>
        <object label="&lt;font style=&quot;font-size: 14px&quot;&gt;&lt;b&gt;%A_NAME%&lt;/b&gt;&lt;/font&gt;&lt;br&gt;&lt;div&gt;&lt;font style=&quot;font-size: 11px&quot;&gt;[Person]&lt;/font&gt;&lt;/div&gt;&lt;div style=&quot;font-size: 6px&quot;&gt;&lt;br&gt;&lt;/div&gt;&lt;div style=&quot;font-size: 11px&quot;&gt;&lt;font color=&quot;#CCCCCC&quot;&gt;%B_DESCRIPTION%&lt;/font&gt;&lt;/div&gt;" A_NAME="Vendedor" B_DESCRIPTION="Cadastra produtos e gerencia vendas." placeholders="1" id="Z66xN0s2nDXAdcldrbSK-56">
          <mxCell style="shape=stencil(tZTdboMwDIWfJpdFIVnHbiu6vUca3GEVEpRk6s/TL+BULVpTTWorceNz4OM42DBZ+1YNwAQ3qgcm10yI9qhtv9BviwGctyYq0W7JK9851ftUf6Ra+QF0IHGLB2hI9sHZHeyxCQmApgWHYXTlJ+OreM94yVpbYyIBrfEz58qPMIUmPssPBOPFkl5zTDVVMTf2EMCljKQy8fV/8BxbVM8Cl68C80LMz6J8Hvll4OoBsqyjkhsaWW+U3n07+2Oam3kmx40Tm/nmuTk/7wE/z73THk9pcyS/fwpb7DraiFxDmdjxUevgTj/QdTh4uHSzvLkZqZtq3kz1cOw/6SaVfi2T8As=);whiteSpace=wrap;html=1;rounded=1;fontColor=#ffffff;strokeColor=#000054;fillColor=light-dark(#60596a, #ddddff);spacing=5;spacingTop=65;arcSize=30;metaEdit=1;allowArrows=0;expand=0;recursiveResize=0;rotatable=0;resizable=0;" parent="1" vertex="1">
            <mxGeometry x="243" y="-310" width="180" height="160" as="geometry" />
          </mxCell>
        </object>
        <mxCell id="Z66xN0s2nDXAdcldrbSK-61" style="edgeStyle=orthogonalEdgeStyle;rounded=0;orthogonalLoop=1;jettySize=auto;html=1;exitX=0.5;exitY=1;exitDx=0;exitDy=0;entryX=0.5;entryY=0;entryDx=0;entryDy=0;" parent="1" source="Z66xN0s2nDXAdcldrbSK-57" target="Z66xN0s2nDXAdcldrbSK-6" edge="1">
          <mxGeometry relative="1" as="geometry" />
        </mxCell>
        <mxCell id="Z66xN0s2nDXAdcldrbSK-62" style="edgeStyle=orthogonalEdgeStyle;rounded=0;orthogonalLoop=1;jettySize=auto;html=1;exitX=0.5;exitY=1;exitDx=0;exitDy=0;entryX=0.5;entryY=0;entryDx=0;entryDy=0;" parent="1" source="Z66xN0s2nDXAdcldrbSK-57" target="Z66xN0s2nDXAdcldrbSK-9" edge="1">
          <mxGeometry relative="1" as="geometry" />
        </mxCell>
        <object label="&lt;font style=&quot;font-size: 14px&quot;&gt;&lt;b&gt;%A_NAME%&lt;/b&gt;&lt;/font&gt;&lt;br&gt;&lt;div&gt;&lt;font style=&quot;font-size: 11px&quot;&gt;[Person]&lt;/font&gt;&lt;/div&gt;&lt;div style=&quot;font-size: 6px&quot;&gt;&lt;br&gt;&lt;/div&gt;&lt;div style=&quot;font-size: 11px&quot;&gt;&lt;font color=&quot;#CCCCCC&quot;&gt;%B_DESCRIPTION%&lt;/font&gt;&lt;/div&gt;" A_NAME="Administração do Marketplace" B_DESCRIPTION="Gerencia usuários e produtos." placeholders="1" id="Z66xN0s2nDXAdcldrbSK-57">
          <mxCell style="shape=stencil(tZTdboMwDIWfJpdFIVnHbiu6vUca3GEVEpRk6s/TL+BULVpTTWorceNz4OM42DBZ+1YNwAQ3qgcm10yI9qhtv9BviwGctyYq0W7JK9851ftUf6Ra+QF0IHGLB2hI9sHZHeyxCQmApgWHYXTlJ+OreM94yVpbYyIBrfEz58qPMIUmPssPBOPFkl5zTDVVMTf2EMCljKQy8fV/8BxbVM8Cl68C80LMz6J8Hvll4OoBsqyjkhsaWW+U3n07+2Oam3kmx40Tm/nmuTk/7wE/z73THk9pcyS/fwpb7DraiFxDmdjxUevgTj/QdTh4uHSzvLkZqZtq3kz1cOw/6SaVfi2T8As=);whiteSpace=wrap;html=1;rounded=1;fontColor=#ffffff;strokeColor=#000054;fillColor=#000084;spacing=5;spacingTop=65;arcSize=30;metaEdit=1;allowArrows=0;expand=0;recursiveResize=0;rotatable=0;resizable=0;" parent="1" vertex="1">
            <mxGeometry x="20" y="-310" width="180" height="160" as="geometry" />
          </mxCell>
        </object>
      </root>
    </mxGraphModel>
  </diagram>
</mxfile>
